<?xml version="1.0" encoding="utf-8"?>
<!-- Generator: Adobe Illustrator 24.1.1, SVG Export Plug-In . SVG Version: 6.00 Build 0)  -->
<svg version="1.1" id="Layer_1" xmlns="http://www.w3.org/2000/svg" xmlns:xlink="http://www.w3.org/1999/xlink" x="0px" y="0px"
	 viewBox="0 0 486.7 443.5" style="enable-background:new 0 0 486.7 443.5;" xml:space="preserve">
<style type="text/css">
	.st0{fill:#FFFFFF;}
	.st1{fill:#157FB9;}
	.st2{fill:#211D10;}
	.st3{fill:#E92631;}
	.st4{fill:#FBCC15;}
	.st5{fill:#11AB4B;}
	.st6{fill:#010101;}
</style>
<g>
	<circle class="st0" cx="238.5" cy="209.9" r="192"/>
	<path class="st1" d="M189.3,66.8c0,0,35.4,4.1,35.8,19.4c0.4,15.3-35.8,29.1-35.8,29.1s-82.8,33.9-80.6,96.2
		c0,0,8.6-29.1,52.6-48.9s81.7-31.5,81.7-31.5s65.5-17.9,54.8-51.7C287.2,45.7,185.4,63.8,189.3,66.8z"/>
	<path class="st2" d="M332.7,100.2c0,0-7.3,43.8-97.3,62.5s-105.5,47-121.6,73.7c0,0,12.7-24.4,78.7-35.2s80.9-12.5,80.9-12.5
		S380.6,184.2,332.7,100.2z"/>
	<path class="st3" d="M117.7,243.9c0,0,55.8-35.5,126.6-36s117.7-40.1,121-48.3c0,0,21.3,62.7-44.4,69.4S176.3,224.2,117.7,243.9z"
		/>
	<path class="st4" d="M129.3,258.5c0,0,41.8-17.9,116.7-4.5c75,13.4,117.5-26.9,117.5-26.9s-9.8,81.7-101.1,58.2
		C223.3,275.3,205.7,264.8,129.3,258.5z"/>
	<path class="st5" d="M137.1,277.5c0,0,16-13.1,98.1,24.6c0,0,28,12.7,80.9-4.5c0,0-45.1,35.4-95.8,27.2S137.1,277.5,137.1,277.5z"
		/>
	<path class="st6" d="M80.9,123.8l2.4,1l-1.1,2.7l29.4,11.9l1.1-2.7l2.5,1l-2.1,5.1l-31.9,1.1l24.6,10l1.1-2.7l2.5,1l-2.8,7l-2.5-1
		l1.1-2.7l-32.5-13.2l0.7-1.6l34.1-1.1l-25.8-10.4l-1.1,2.7l-2.4-1L80.9,123.8z"/>
	<path class="st6" d="M66.5,156.4l2.6,0.6l-0.4,1.8l31.7,15.2l-0.5,2.4l-35.2-0.2l-0.5,2.1l-2.6-0.6l1.8-7.7l2.6,0.6l-0.5,2.3
		l8.3,0.1l2-8.9l-7.5-3.6l-0.5,2.3l-2.6-0.6L66.5,156.4z M78.2,165.3l-1.8,7.7l18,0.1L78.2,165.3z"/>
	<path class="st6" d="M60.9,197.7l2.6,0.1l-0.1,2.8l31.4,0.6l0.1-6.4l-5.8-0.1l0-1.8l8.7,0.2l-0.4,19.2l-8.7-0.2l0-1.8l5.8,0.1
		l0.1-6.4l-31.4-0.6l-0.1,2.8l-2.6-0.1L60.9,197.7z"/>
	<path class="st6" d="M64.1,231.7l0.4,2.7l-2.6,0.4l-1.2-8.4l2.6-0.4l0.4,2.7l31.4-4.3l-0.4-2.7l2.6-0.4l1.2,8.4l-2.6,0.4l-0.4-2.7
		L64.1,231.7z"/>
	<path class="st6" d="M68.6,260.9c-0.5-1.4-0.6-2.8-0.3-4.2c0.3-1.4,1.1-2.9,2.2-4.3c1.3-1.7,3-3.2,5-4.5c2-1.3,4.4-2.5,7.2-3.6
		c2.8-1.1,5.4-1.8,7.8-2.2c2.4-0.4,4.6-0.4,6.8,0c1.8,0.3,3.4,0.9,4.6,1.7c1.2,0.8,2.1,2,2.6,3.3c1.1,2.9,0.4,5.9-2.2,9
		c-2.6,3.1-6.6,5.6-11.9,7.7c-2.8,1.1-5.3,1.8-7.7,2.1c-2.4,0.4-4.7,0.4-6.8,0c-1.8-0.3-3.4-0.9-4.6-1.7
		C69.9,263.3,69.1,262.2,68.6,260.9z M71,259.9c0.9,2.2,2.8,3.4,5.8,3.5c3,0.1,7.1-0.8,12.2-2.8c5.1-2,8.7-4,10.9-6.2
		c2.2-2.1,2.8-4.3,1.9-6.5c-0.9-2.2-2.8-3.4-5.8-3.5c-3-0.1-7.1,0.8-12.2,2.8c-5.1,2-8.7,4-10.9,6.2C70.8,255.5,70.2,257.7,71,259.9
		z"/>
	<path class="st6" d="M76.2,283.9l2.3-1.3l1.5,2.5l27.2-16.3l-1.5-2.5l2.3-1.4l2.8,4.8l-18.4,26.1l22.8-13.6l-1.5-2.5l2.3-1.4
		l3.9,6.5l-2.3,1.4l-1.5-2.5l-30.1,18l-0.9-1.5l19.6-27.9l-23.9,14.3l1.5,2.5l-2.3,1.3L76.2,283.9z"/>
	<path class="st6" d="M96.7,315.9l2-1.7l1.3,1.4l30.8-17l1.6,1.8l-20.6,28.5l1.4,1.6l-2,1.7l-5.2-5.9l2-1.7l1.6,1.8l4.9-6.7l-6-6.8
		l-7.3,4l1.6,1.8l-2,1.7L96.7,315.9z M110.8,311.5l5.3,5.9l10.5-14.6L110.8,311.5z"/>
	<path class="st6" d="M119.9,339.5l1.7-2l2.1,1.7l20.2-24.5l-2.1-1.8l1.7-2l6.5,5.4l-1.7,2l-2.1-1.7l-19.9,24.1l7.6,6.3l3.9-4.8
		l1.4,1.1l-5.9,7.1L119.9,339.5z"/>
	<path class="st6" d="M185.6,378.4l1.6-8.3l1.6,0.3c-0.5,2.8-0.4,4.9,0.2,6.4c0.6,1.5,1.8,2.4,3.7,2.8c1.7,0.3,3.1,0,4.2-1
		c1.1-1,1.9-2.6,2.3-4.7c0.3-1.7,0.3-3.1,0-4.2c-0.4-1-1.3-2.2-2.9-3.4l-2.5-2c-1.8-1.5-3-3-3.5-4.8c-0.5-1.7-0.5-4,0-6.7
		c0.6-3.1,1.7-5.3,3.3-6.8c1.6-1.5,3.6-2,5.9-1.5c1,0.2,2,0.6,3.1,1.2c1.1,0.6,2.2,1.4,3.4,2.3l-1.5,7.7l-1.6-0.3
		c0.3-2.6,0.2-4.5-0.4-5.8c-0.6-1.3-1.8-2.1-3.5-2.5c-1.5-0.3-2.7,0-3.7,0.9c-1,0.9-1.7,2.3-2.1,4.3c-0.3,1.7-0.3,3.2,0.1,4.3
		c0.4,1.1,1.4,2.3,3.2,3.7l2.4,1.8c1.7,1.4,2.9,2.9,3.4,4.6c0.5,1.7,0.5,3.8,0,6.4c-0.7,3.5-1.9,6-3.5,7.6c-1.7,1.5-3.8,2-6.4,1.5
		c-1.2-0.2-2.3-0.7-3.4-1.3C187.8,380.4,186.7,379.5,185.6,378.4z"/>
	<path class="st6" d="M213.5,386l0.2-2.6l2.7,0.2l2.8-31.6l-2.7-0.2l0.2-2.6l10.2,0.9c2.2,0.2,3.8,1.3,4.9,3.3
		c1.1,2,1.5,4.6,1.2,7.7c-0.3,3.2-1.1,5.6-2.5,7.4c-1.4,1.8-3.2,2.5-5.4,2.4l-4.5-0.4l-1.2,13.5l3.3,0.3l-0.2,2.6L213.5,386z
		 M220.8,367.7l3.8,0.3c1.4,0.1,2.6-0.4,3.4-1.7c0.9-1.3,1.4-3.1,1.6-5.6c0.2-2.5,0-4.5-0.6-5.8c-0.6-1.4-1.7-2.1-3.1-2.3l-3.8-0.3
		L220.8,367.7z"/>
	<path class="st6" d="M254.8,349.9c1.5-0.1,2.8,0.3,4.1,1.1c1.3,0.8,2.4,1.9,3.4,3.5c1.2,1.8,2,3.9,2.6,6.2c0.6,2.3,1,5,1.1,8
		c0.1,3,0,5.7-0.5,8c-0.4,2.4-1.2,4.5-2.2,6.4c-0.9,1.7-1.9,2.9-3.1,3.8c-1.2,0.9-2.5,1.3-4,1.4c-3.1,0.1-5.7-1.5-7.8-5
		c-2.1-3.4-3.2-8-3.4-13.8c-0.1-3,0-5.6,0.5-8c0.4-2.4,1.2-4.5,2.2-6.4c0.9-1.7,1.9-2.9,3.1-3.8C252,350.5,253.3,350,254.8,349.9z
		 M254.9,352.6c-2.4,0.1-4.1,1.5-5.2,4.4c-1.1,2.8-1.5,7-1.3,12.4c0.2,5.5,1,9.6,2.3,12.3c1.3,2.7,3.1,4.1,5.5,4
		c2.4-0.1,4.1-1.5,5.2-4.4c1.1-2.8,1.5-7,1.3-12.4c-0.2-5.4-1-9.5-2.3-12.3C259.1,353.8,257.2,352.5,254.9,352.6z"/>
	<path class="st6" d="M289.3,361.7c0.7,0.1,1.4,0.5,2.1,1c0.7,0.6,1.4,1.5,2.2,2.7l6.1,9.6l2.5-0.7l0.7,2.5l-4.9,1.4l-6.6-10.3
		c-1.3-2-2.3-3.2-3-3.7c-0.7-0.5-1.5-0.6-2.4-0.3l-3.1,0.9l4.1,14l2.9-0.9l0.7,2.5l-8.4,2.5l-0.7-2.5l2.6-0.8l-9-30.4l-2.6,0.8
		l-0.8-2.5l10.5-3.1c2-0.6,3.8-0.2,5.4,1.1c1.6,1.3,2.8,3.5,3.7,6.5c0.7,2.4,0.9,4.5,0.5,6.1C291.7,359.7,290.8,360.9,289.3,361.7z
		 M282.3,362.3l4.1-1.2c1.4-0.4,2.3-1.3,2.6-2.6c0.3-1.3,0.1-3.2-0.6-5.6c-0.7-2.4-1.6-4-2.6-4.9c-1-0.9-2.2-1.2-3.6-0.8l-4.1,1.2
		L282.3,362.3z"/>
	<path class="st6" d="M317.8,370.2l-1.1-2.4l2.5-1.2l-13.4-28.4L300,341l2.5,5.2l-1.6,0.8l-3.7-7.9l17.3-8.2l3.7,7.9l-1.6,0.8
		l-2.5-5.2l-5.7,2.7l13.4,28.4l2.5-1.2l1.1,2.4L317.8,370.2z"/>
	<path class="st6" d="M374.7,326.1l-2.1-1.6l1.7-2.2l-25.2-19.2l-1.7,2.2l-2.1-1.6l5.1-6.7l2.1,1.6l-1.7,2.2l24.9,19l6-7.8l-4.9-3.8
		l1.1-1.4l7.3,5.6L374.7,326.1z"/>
	<path class="st6" d="M366,274.6c0.6-1.4,1.6-2.4,2.9-3.2c1.3-0.8,2.8-1.2,4.7-1.4c2.1-0.2,4.4,0,6.7,0.5c2.3,0.5,4.9,1.5,7.6,2.8
		c2.7,1.3,5,2.7,6.9,4.2c1.9,1.5,3.4,3.2,4.6,5c1.1,1.6,1.7,3.1,1.9,4.6c0.2,1.5,0,2.9-0.6,4.3c-1.4,2.9-4,4.5-8,4.7
		c-4,0.2-8.6-0.9-13.8-3.4c-2.7-1.3-5-2.7-6.9-4.2c-1.9-1.5-3.5-3.2-4.6-5c-1.1-1.6-1.7-3.1-1.9-4.6
		C365.1,277.4,365.3,276,366,274.6z M368.4,275.8c-1,2.2-0.5,4.4,1.5,6.8c2,2.3,5.4,4.7,10.4,7.1c4.9,2.4,8.9,3.6,11.9,3.8
		c3,0.1,5.1-0.9,6.1-3.1c1-2.2,0.5-4.5-1.4-6.8c-2-2.3-5.5-4.7-10.4-7.1c-4.9-2.4-8.9-3.6-11.9-3.7
		C371.4,272.5,369.4,273.6,368.4,275.8z"/>
	<path class="st6" d="M410.6,261.3l-2.6-0.6l0.6-2.7l-30.6-7.1l-1.4,6.2l5.6,1.3l-0.4,1.7l-8.5-2l4.4-18.7l8.5,2l-0.4,1.7l-5.6-1.3
		l-1.4,6.2l30.6,7.1l0.6-2.7l2.6,0.6L410.6,261.3z"/>
	<path class="st6" d="M417.2,228.8l-2.6-0.2l0.2-2.8l-31.3-2.1l-0.4,6.3l5.8,0.4l-0.1,1.8l-8.7-0.6l1.3-19.1l8.7,0.6l-0.1,1.8
		l-5.8-0.4l-0.4,6.3L415,223l0.2-2.8l2.6,0.2L417.2,228.8z"/>
	<path class="st6" d="M392.4,163.3c0.1-0.7,0.5-1.4,1-2.1c0.6-0.7,1.5-1.4,2.7-2.1l9.7-6.1l-0.7-2.5l2.5-0.7l1.4,4.9l-10.4,6.5
		c-2,1.3-3.3,2.2-3.8,2.9c-0.5,0.7-0.6,1.5-0.3,2.4l0.9,3.1l14-4.1l-0.9-2.9l2.5-0.7l2.4,8.4L411,171l-0.8-2.6l-30.4,8.8l0.8,2.6
		l-2.5,0.7L375,170c-0.6-2-0.2-3.8,1.1-5.4c1.3-1.6,3.5-2.8,6.5-3.7c2.4-0.7,4.5-0.9,6.1-0.5C390.4,160.9,391.6,161.8,392.4,163.3z
		 M392.9,170.3l-1.2-4.1c-0.4-1.4-1.3-2.3-2.6-2.6c-1.3-0.3-3.2-0.2-5.6,0.5c-2.4,0.7-4,1.5-5,2.5c-0.9,1-1.2,2.2-0.8,3.6l1.2,4.1
		L392.9,170.3z"/>
	<path class="st6" d="M399.4,131.7l-2.3,1.3l-1.3-2.4l-11.7,6.4l-13,14.7l1,1.8l-2.3,1.3l-3.8-7l2.3-1.3l1.2,2.2l10.5-11.9
		l-15.7,2.4l1.2,2.1l-2.3,1.3l-3-5.5l2.3-1.3l1,1.8l18.9-2.9l12.1-6.6l-1.3-2.4l2.3-1.3L399.4,131.7z"/>
	<g>
		<path class="st6" d="M417.1,202.2l-2.7,0.2l-0.2-2.8l-32.1,2.3l0.2,2.8l-2.7,0.2l-1.3-17.6l8.3-0.6l0.1,1.8l-5.2,0.4l0.7,10
			l12.5-0.9l-0.5-7.1l-4.7,0.3l-0.1-1.8l12.4-0.9l0.1,1.8l-4.7,0.3l0.5,7.1l15.7-1.1l-0.7-10.3l-5.2,0.4l-0.1-1.8l8.3-0.6
			L417.1,202.2z"/>
	</g>
</g>
</svg>
